<svg width="24" height="24" viewBox="0 0 24 24" fill="none" xmlns="http://www.w3.org/2000/svg">
<path fill-rule="evenodd" clip-rule="evenodd" d="M12 4C7.58172 4 4 7.58172 4 12C4 16.4183 7.58172 20 12 20C16.4183 20 20 16.4183 20 12C20 7.58172 16.4183 4 12 4ZM2 12C2 6.47715 6.47715 2 12 2C17.5228 2 22 6.47715 22 12C22 17.5228 17.5228 22 12 22C6.47715 22 2 17.5228 2 12Z" fill="#303030"/>
<path fill-rule="evenodd" clip-rule="evenodd" d="M16.6644 8.2526C17.0772 8.61952 17.1144 9.25159 16.7474 9.66437L11.4141 15.6644C11.0578 16.0653 10.4486 16.1136 10.0335 15.774L7.36679 13.5921C6.93935 13.2424 6.87635 12.6124 7.22607 12.185C7.5758 11.7575 8.20582 11.6945 8.63327 12.0442L10.557 13.6182L15.2526 8.33565C15.6195 7.92286 16.2516 7.88568 16.6644 8.2526Z" fill="#303030"/>
</svg>
