<svg width="24" height="24" viewBox="0 0 24 24" fill="none" xmlns="http://www.w3.org/2000/svg">
<path fill-rule="evenodd" clip-rule="evenodd" d="M15 10.5C15 12.9853 12.9853 15 10.5 15C8.01472 15 6 12.9853 6 10.5C6 8.01472 8.01472 6 10.5 6C12.9853 6 15 8.01472 15 10.5ZM14.3348 15.7488C13.2598 16.5355 11.9341 17 10.5 17C6.91015 17 4 14.0899 4 10.5C4 6.91015 6.91015 4 10.5 4C14.0899 4 17 6.91015 17 10.5C17 11.9341 16.5356 13.2597 15.749 14.3346L20.7072 19.2928L19.293 20.7071L14.3348 15.7488Z" fill="#303030"/>
</svg>
