<svg width="32" height="32" viewBox="0 0 32 32" fill="none" xmlns="http://www.w3.org/2000/svg">
<path fill-rule="evenodd" clip-rule="evenodd" d="M23 5H9C6.79086 5 5 6.79086 5 9V23C5 25.2091 6.79086 27 9 27H23C25.2091 27 27 25.2091 27 23V9C27 6.79086 25.2091 5 23 5ZM7 9C7 7.89543 7.89543 7 9 7H23C24.1046 7 25 7.89543 25 9V17.9585L23.4571 16.4156L23.4434 16.4022C22.784 15.7677 21.9642 15.3691 21.0625 15.3691C20.1609 15.3691 19.341 15.7677 18.6817 16.4022L18.6679 16.4156L18.25 16.8335L15.5821 14.1656L15.5684 14.1522C14.909 13.5177 14.0892 13.1191 13.1875 13.1191C12.2859 13.1191 11.466 13.5177 10.8067 14.1522L10.7929 14.1656L7 17.9586V9ZM19.6642 18.2477L20.0748 17.8372C20.4391 17.489 20.7809 17.3691 21.0625 17.3691C21.3441 17.3691 21.6859 17.489 22.0503 17.8372L25 20.7869V23C25 24.1046 24.1046 25 23 25H9C7.89543 25 7 24.1046 7 23V20.7869L7.00003 20.787L12.1998 15.5872C12.5641 15.239 12.9059 15.1191 13.1875 15.1191C13.4691 15.1191 13.8109 15.239 14.1753 15.5872L16.8358 18.2477L18.25 19.662L20.5 21.912L21.9142 20.4977L19.6642 18.2477ZM19.375 9.5C18.2704 9.5 17.375 10.3954 17.375 11.5C17.375 12.6046 18.2704 13.5 19.375 13.5H19.3868C20.4913 13.5 21.3868 12.6046 21.3868 11.5C21.3868 10.3954 20.4913 9.5 19.3868 9.5H19.375Z" fill="#303030"/>
</svg>
